<svg width="64" height="64" viewBox="0 0 64 64" fill="none" xmlns="http://www.w3.org/2000/svg">
<g clip-path="url(#clip0_433_775)">
<path d="M24.7987 53.1155C24.7987 55.4008 22.9495 57.2497 20.6645 57.2497C18.3795 57.2497 16.5303 55.4005 16.5303 53.1155C16.5303 50.8303 18.3795 48.9813 20.6645 48.9813C22.9495 48.9813 24.7987 50.8303 24.7987 53.1155ZM22.3132 53.1155C22.3132 52.2118 21.5682 51.4668 20.6645 51.4668C19.7607 51.4668 19.0158 52.2118 19.0158 53.1155C19.0158 54.0193 19.7607 54.7643 20.6645 54.7643C21.5682 54.7643 22.3132 54.0193 22.3132 53.1155ZM47.5148 53.1155C47.5148 55.4008 45.6655 57.2497 43.3805 57.2497C41.0953 57.2497 39.2463 55.4005 39.2463 53.1155C39.2463 50.8303 41.0955 48.9813 43.3805 48.9813C45.6658 48.9813 47.5148 50.8303 47.5148 53.1155ZM44.9642 53.1155C44.9642 52.2475 44.2487 51.532 43.3807 51.532C42.5127 51.532 41.7972 52.2475 41.7972 53.1155C41.7972 53.9835 42.5127 54.699 43.3807 54.699C44.2487 54.699 44.9642 53.9835 44.9642 53.1155ZM50.9125 49.4323H50.0405V45.2077C50.0405 43.8847 48.973 42.8175 47.635 42.8175H41.7718C41.6815 42.8175 41.5912 42.7725 41.5312 42.7122L34.8413 35.496C34.5405 35.1952 34.1198 35.015 33.6838 35H20.6795C19.552 35 18.5897 35.7668 18.3342 36.8643L17.0263 42.562C16.9963 42.7123 16.861 42.8175 16.6955 42.8175C15.192 42.8175 13.9593 44.0352 13.9593 45.5537V49.0868C13.9593 49.2673 13.809 49.4175 13.6285 49.4175H13.0875C12.907 49.4175 12.7568 49.5677 12.7568 49.7482V50.8758C12.7568 51.7178 13.4482 52.4092 14.2902 52.4092H14.9067C15.072 52.4092 15.2075 52.289 15.2375 52.1387C15.6885 49.553 17.9585 47.5685 20.6798 47.5685C23.401 47.5685 25.656 49.538 26.107 52.1237C26.137 52.289 26.2722 52.3942 26.4377 52.3942H37.623C37.7883 52.3942 37.9238 52.274 37.9538 52.1237C38.4048 49.538 40.6598 47.5685 43.381 47.5685C46.102 47.5685 48.3573 49.538 48.8083 52.1237C48.8383 52.289 48.9735 52.3942 49.139 52.3942H49.7103C50.5673 52.3942 51.2438 51.7027 51.2438 50.8607V49.7482C51.2433 49.5825 51.093 49.4323 50.9125 49.4323ZM26.5877 42.4715C26.5877 42.652 26.4375 42.8022 26.257 42.8022H19.1912C18.9807 42.8022 18.8155 42.6068 18.8605 42.3963L20.018 37.2547C20.0782 36.9842 20.2885 36.7887 20.5742 36.7887H26.257C26.4375 36.7887 26.5877 36.939 26.5877 37.1195V42.4715ZM38.3143 42.8172H28.7227C28.5422 42.8172 28.392 42.667 28.392 42.4865V37.1345C28.392 36.954 28.5422 36.8037 28.7227 36.8037H33.4735C33.5637 36.8037 33.654 36.8488 33.729 36.909L38.57 42.246C38.7502 42.4715 38.5998 42.8172 38.3143 42.8172ZM0.5 17.625C0.5 21.0445 2.90625 23.9505 6 25.019V58.625H0.5V63.125H63.5V58.625H58V25.0135C61.2225 24.0273 63.4248 21.1645 63.5 17.625V15.625H0.5V17.625ZM16.3225 17.4615C16.3225 19.0808 18.0112 25.329 24.2542 25.329C29.6765 25.329 32.0547 20.4253 32.0547 17.4615C32.0547 20.2245 33.9072 25.3232 39.9207 25.3232C45.354 25.3232 47.7615 20.0735 47.7615 17.4615C47.7615 21.0678 50.193 24.0655 53.5 25V58.625H10.5V25.0235C13.8505 24.1165 16.3225 21.0988 16.3225 17.4615ZM55.708 5.875H55.75V0.875H8.5V5.875L0.5 13.875H63.5L55.708 5.875Z" fill="#A2001D"/>
</g>
<defs>
<clipPath id="clip0_433_775">
<rect width="64" height="64" fill="white"/>
</clipPath>
</defs>
</svg>
